<?xml version="1.0" encoding="utf-8" ?>
<!-- Generator: Assembly 1.0 - http://assemblyapp.co -->
<svg version="1.1" xmlns="http://www.w3.org/2000/svg" xmlns:xlink="http://www.w3.org/1999/xlink" width="300" height="300" viewBox="0 0 300 300">
	<g id="widget" transform="matrix(1,0,0,1,150,150)">
		<path d="M2.84217e-14,143.105 L2.84217e-14,143.105 C-79.0846,143.105 -143.105,79.0846 -143.105,0 L-143.105,0 C-143.105,-79.0846 -79.0846,-143.105 2.84217e-14,-143.105 L2.84217e-14,-143.105 C79.0846,-143.105 143.105,-79.0846 143.105,0 L143.105,0 C143.105,79.0846 79.0846,143.105 2.84217e-14,143.105 Z" fill="#fdf4af" fill-opacity="1" />
		<path d="M-70.6508,-31.456 Q-62.9371,-24.0929 -62.0856,-14.7262L-71.8029,-14.7262 Q-73.4558,-21.8389 -78.3896,-25.9963Q-83.3234,-30.1537 -92.2392,-30.1537Q-103.109,-30.1537 -109.796,-22.5151Q-116.482,-14.8765 -116.482,0.901605Q-116.482,13.8246 -110.447,21.8639Q-104.411,29.9032 -92.4396,29.9032Q-81.42,29.9032 -75.6597,21.4382Q-72.6043,16.9802 -71.1016,9.7173L-61.3843,9.7173 Q-62.6866,21.338 -69.9996,29.202Q-78.7653,38.6689 -93.6417,38.6689Q-106.465,38.6689 -115.18,30.905Q-126.651,20.6367 -126.651,-0.801427Q-126.651,-17.0804 -118.035,-27.499Q-108.719,-38.8191 -92.3394,-38.8191Q-78.3645,-38.8191 -70.6508,-31.456Z M-94.343,-38.8191" fill="#32b9be" fill-opacity="1" />
		<path d="M-50.2144,-36.8156 L-41.1984,-36.8156 L-41.1984,36.7655 L-50.2144,36.7655 Z" fill="#32b9be" fill-opacity="1" />
		<path d="M5.91052,24.168 Q9.24146,17.3809 9.24146,9.06614Q9.24146,1.55276 6.83717,-3.15562Q3.0304,-10.5688 -6.28619,-10.5688Q-14.5509,-10.5688 -18.3076,-4.25758Q-22.0643,2.05366 -22.0643,10.9695Q-22.0643,19.5348 -18.3076,25.245Q-14.5509,30.9551 -6.38637,30.9551Q2.57959,30.9551 5.91052,24.168Z M11.4955,-11.5205 Q18.6582,-4.60821 18.6582,8.8157Q18.6582,21.7888 12.347,30.2539Q6.03575,38.7189 -7.23789,38.7189Q-18.3076,38.7189 -24.8192,31.2306Q-31.3308,23.7423 -31.3308,11.1198Q-31.3308,-2.40428 -24.4686,-10.4186Q-17.6064,-18.4328 -6.03575,-18.4328Q4.33272,-18.4328 11.4955,-11.5205Z M-6.33628,-18.1824" fill="#32b9be" fill-opacity="1" />
		<path d="M34.7369,19.9355 Q35.1376,24.4435 36.9909,26.8478Q40.3969,31.2056 48.8119,31.2056Q53.8208,31.2056 57.6276,29.0267Q61.4344,26.8478 61.4344,22.2897Q61.4344,18.8335 58.379,17.0303Q56.4255,15.9284 50.6652,14.4758L43.5025,12.6726 Q36.6402,10.9695 33.3844,8.86579Q27.5741,5.20928 27.5741,-1.25223Q27.5741,-8.86579 33.0589,-13.5742Q38.5436,-18.2826 47.8101,-18.2826Q59.9317,-18.2826 65.2913,-11.1699Q68.6472,-6.66186 68.5471,-1.45259L60.0319,-1.45259 Q59.7815,-4.50803 57.8781,-7.01249Q54.7725,-10.5688 47.1089,-10.5688Q41.9998,-10.5688 39.3701,-8.61534Q36.7404,-6.66186 36.7404,-3.45615Q36.7404,0.0500892 40.1966,2.15384Q42.2001,3.40607 46.1071,4.35776L52.0677,5.81035 Q61.785,8.16454 65.0909,10.3685Q70.3503,13.8246 70.3503,21.2378Q70.3503,28.4006 64.9156,33.6098Q59.4809,38.8191 48.3611,38.8191Q36.3898,38.8191 31.4059,33.3844Q26.422,27.9498 26.0714,19.9355Z M48.0606,-18.1824" fill="#32b9be" fill-opacity="1" />
		<path d="M114.078,-15.4024 Q119.438,-12.7227 122.243,-8.46507Q124.947,-4.40785 125.849,1.00178Q126.651,4.70838 126.651,12.8228L87.3305,12.8228 Q87.581,20.9874 91.1874,25.9212Q94.7938,30.8549 102.357,30.8549Q109.42,30.8549 113.627,26.1966Q116.032,23.4918 117.033,19.9355L125.899,19.9355 Q125.549,22.8908 123.57,26.5222Q121.592,30.1537 119.137,32.4578Q115.03,36.4649 108.969,37.8674Q105.713,38.6689 101.606,38.6689Q91.5881,38.6689 84.6257,31.3809Q77.6633,24.0929 77.6633,10.9695Q77.6633,-1.95348 84.6758,-10.0178Q91.6883,-18.0822 103.008,-18.0822Q108.719,-18.0822 114.078,-15.4024Z M117.384,5.66008 Q116.833,-0.200357 114.829,-3.7066Q111.123,-10.2182 102.457,-10.2182Q96.2464,-10.2182 92.0389,-5.73521Q87.8314,-1.25223 87.581,5.66008Z M102.157,-18.1824" fill="#32b9be" fill-opacity="1" />
	</g>
</svg>