<?xml version="1.0" encoding="utf-8" ?>
<!-- Generator: Assembly 1.0 - http://assemblyapp.co -->
<svg version="1.1" xmlns="http://www.w3.org/2000/svg" xmlns:xlink="http://www.w3.org/1999/xlink" width="300" height="300" viewBox="0 0 300 300">
	<g id="widget" transform="matrix(1,0,0,1,150,150)">
		<path d="M122.87,121.969 C122.87,125.015 120.401,127.485 117.354,127.485 C114.308,127.485 111.839,125.015 111.839,121.969 C111.839,118.923 114.308,116.454 117.354,116.454 C120.401,116.454 122.87,118.923 122.87,121.969 Z M95.2927,121.969 C95.2927,125.015 92.8234,127.485 89.7773,127.485 C86.7312,127.485 84.2619,125.015 84.2619,121.969 C84.2619,118.923 86.7312,116.454 89.7773,116.454 C92.8234,116.454 95.2927,118.923 95.2927,121.969 Z M67.7156,121.969 C67.7156,125.015 65.2462,127.485 62.2001,127.485 C59.154,127.485 56.6847,125.015 56.6847,121.969 C56.6847,118.923 59.154,116.454 62.2001,116.454 C65.2462,116.454 67.7156,118.923 67.7156,121.969 Z M40.4141,121.969 C40.4141,125.015 37.9448,127.485 34.8987,127.485 C31.8526,127.485 29.3833,125.015 29.3833,121.969 C29.3833,118.923 31.8526,116.454 34.8987,116.454 C37.9448,116.454 40.4141,118.923 40.4141,121.969 Z M13.3884,121.969 C13.3884,125.015 10.919,127.485 7.87296,127.485 C4.82687,127.485 2.35753,125.015 2.35753,121.969 C2.35753,118.923 4.82687,116.454 7.87296,116.454 C10.919,116.454 13.3884,118.923 13.3884,121.969 Z M-14.1888,121.969 C-14.1888,125.015 -16.6581,127.485 -19.7042,127.485 C-22.7503,127.485 -25.2196,125.015 -25.2196,121.969 C-25.2196,118.923 -22.7503,116.454 -19.7042,116.454 C-16.6581,116.454 -14.1888,118.923 -14.1888,121.969 Z M-41.7659,121.969 C-41.7659,125.015 -44.2352,127.485 -47.2813,127.485 C-50.3274,127.485 -52.7968,125.015 -52.7968,121.969 C-52.7968,118.923 -50.3274,116.454 -47.2813,116.454 C-44.2352,116.454 -41.7659,118.923 -41.7659,121.969 Z M-69.0673,121.969 C-69.0673,125.015 -71.5367,127.485 -74.5828,127.485 C-77.6289,127.485 -80.0982,125.015 -80.0982,121.969 C-80.0982,118.923 -77.6289,116.454 -74.5828,116.454 C-71.5367,116.454 -69.0673,118.923 -69.0673,121.969 Z M-96.0927,121.969 C-96.0927,125.015 -98.5621,127.485 -101.608,127.485 C-104.654,127.485 -107.124,125.015 -107.124,121.969 C-107.124,118.923 -104.654,116.454 -101.608,116.454 C-98.5621,116.454 -96.0927,118.923 -96.0927,121.969 Z M-123.67,121.969 C-123.67,125.015 -126.139,127.485 -129.185,127.485 C-132.231,127.485 -134.701,125.015 -134.701,121.969 C-134.701,118.923 -132.231,116.454 -129.185,116.454 C-126.139,116.454 -123.67,118.923 -123.67,121.969 Z M139.14,94.6677 C139.14,97.7138 136.671,100.183 133.625,100.183 C130.579,100.183 128.109,97.7138 128.109,94.6677 C128.109,91.6216 130.579,89.1523 133.625,89.1523 C136.671,89.1523 139.14,91.6216 139.14,94.6677 Z M111.839,94.6677 C111.839,97.7138 109.37,100.183 106.324,100.183 C103.277,100.183 100.808,97.7138 100.808,94.6677 C100.808,91.6216 103.277,89.1523 106.324,89.1523 C109.37,89.1523 111.839,91.6216 111.839,94.6677 Z M84.2619,94.6677 C84.2619,97.7138 81.7925,100.183 78.7464,100.183 C75.7003,100.183 73.231,97.7138 73.231,94.6677 C73.231,91.6216 75.7003,89.1523 78.7464,89.1523 C81.7925,89.1523 84.2619,91.6216 84.2619,94.6677 Z M56.9604,94.6677 C56.9604,97.7138 54.4911,100.183 51.445,100.183 C48.3989,100.183 45.9296,97.7138 45.9296,94.6677 C45.9296,91.6216 48.3989,89.1523 51.445,89.1523 C54.4911,89.1523 56.9604,91.6216 56.9604,94.6677 Z M29.3833,94.6677 C29.3833,97.7138 26.9139,100.183 23.8678,100.183 C20.8218,100.183 18.3524,97.7138 18.3524,94.6677 C18.3524,91.6216 20.8218,89.1523 23.8678,89.1523 C26.9139,89.1523 29.3833,91.6216 29.3833,94.6677 Z M2.35753,94.6677 C2.35753,97.7138 -0.111811,100.183 -3.1579,100.183 C-6.20399,100.183 -8.67333,97.7138 -8.67333,94.6677 C-8.67333,91.6216 -6.20399,89.1523 -3.1579,89.1523 C-0.111811,89.1523 2.35753,91.6216 2.35753,94.6677 Z M-25.2196,94.6677 C-25.2196,97.7138 -27.689,100.183 -30.735,100.183 C-33.7811,100.183 -36.2505,97.7138 -36.2505,94.6677 C-36.2505,91.6216 -33.7811,89.1523 -30.735,89.1523 C-27.689,89.1523 -25.2196,91.6216 -25.2196,94.6677 Z M-52.5211,94.6677 C-52.5211,97.7138 -54.9904,100.183 -58.0365,100.183 C-61.0826,100.183 -63.5519,97.7138 -63.5519,94.6677 C-63.5519,91.6216 -61.0826,89.1523 -58.0365,89.1523 C-54.9904,89.1523 -52.5211,91.6216 -52.5211,94.6677 Z M-79.5465,94.6677 C-79.5465,97.7138 -82.0158,100.183 -85.0619,100.183 C-88.108,100.183 -90.5773,97.7138 -90.5773,94.6677 C-90.5773,91.6216 -88.108,89.1523 -85.0619,89.1523 C-82.0158,89.1523 -79.5465,91.6216 -79.5465,94.6677 Z M-107.124,94.6677 C-107.124,97.7138 -109.593,100.183 -112.639,100.183 C-115.685,100.183 -118.154,97.7138 -118.154,94.6677 C-118.154,91.6216 -115.685,89.1523 -112.639,89.1523 C-109.593,89.1523 -107.124,91.6216 -107.124,94.6677 Z M122.87,67.0906 C122.87,70.1367 120.401,72.606 117.354,72.606 C114.308,72.606 111.839,70.1367 111.839,67.0906 C111.839,64.0445 114.308,61.5752 117.354,61.5752 C120.401,61.5752 122.87,64.0445 122.87,67.0906 Z M95.2927,67.0906 C95.2927,70.1367 92.8234,72.606 89.7773,72.606 C86.7312,72.606 84.2619,70.1367 84.2619,67.0906 C84.2619,64.0445 86.7312,61.5752 89.7773,61.5752 C92.8234,61.5752 95.2927,64.0445 95.2927,67.0906 Z M67.7156,67.0906 C67.7156,70.1367 65.2462,72.606 62.2001,72.606 C59.154,72.606 56.6847,70.1367 56.6847,67.0906 C56.6847,64.0445 59.154,61.5752 62.2001,61.5752 C65.2462,61.5752 67.7156,64.0445 67.7156,67.0906 Z M40.4141,67.0906 C40.4141,70.1367 37.9448,72.606 34.8987,72.606 C31.8526,72.606 29.3833,70.1367 29.3833,67.0906 C29.3833,64.0445 31.8526,61.5752 34.8987,61.5752 C37.9448,61.5752 40.4141,64.0445 40.4141,67.0906 Z M13.3884,67.0906 C13.3884,70.1367 10.919,72.606 7.87296,72.606 C4.82687,72.606 2.35753,70.1367 2.35753,67.0906 C2.35753,64.0445 4.82687,61.5752 7.87296,61.5752 C10.919,61.5752 13.3884,64.0445 13.3884,67.0906 Z M-14.1888,67.0906 C-14.1888,70.1367 -16.6581,72.606 -19.7042,72.606 C-22.7503,72.606 -25.2196,70.1367 -25.2196,67.0906 C-25.2196,64.0445 -22.7503,61.5752 -19.7042,61.5752 C-16.6581,61.5752 -14.1888,64.0445 -14.1888,67.0906 Z M-41.7659,67.0906 C-41.7659,70.1367 -44.2352,72.606 -47.2813,72.606 C-50.3274,72.606 -52.7968,70.1367 -52.7968,67.0906 C-52.7968,64.0445 -50.3274,61.5752 -47.2813,61.5752 C-44.2352,61.5752 -41.7659,64.0445 -41.7659,67.0906 Z M-69.0673,67.0906 C-69.0673,70.1367 -71.5367,72.606 -74.5828,72.606 C-77.6289,72.606 -80.0982,70.1367 -80.0982,67.0906 C-80.0982,64.0445 -77.6289,61.5752 -74.5828,61.5752 C-71.5367,61.5752 -69.0673,64.0445 -69.0673,67.0906 Z M-96.0927,67.0906 C-96.0927,70.1367 -98.5621,72.606 -101.608,72.606 C-104.654,72.606 -107.124,70.1367 -107.124,67.0906 C-107.124,64.0445 -104.654,61.5752 -101.608,61.5752 C-98.5621,61.5752 -96.0927,64.0445 -96.0927,67.0906 Z M-123.67,67.0906 C-123.67,70.1367 -126.139,72.606 -129.185,72.606 C-132.231,72.606 -134.701,70.1367 -134.701,67.0906 C-134.701,64.0445 -132.231,61.5752 -129.185,61.5752 C-126.139,61.5752 -123.67,64.0445 -123.67,67.0906 Z M139.14,40.0652 C139.14,43.1113 136.671,45.5806 133.625,45.5806 C130.579,45.5806 128.109,43.1113 128.109,40.0652 C128.109,37.0191 130.579,34.5498 133.625,34.5498 C136.671,34.5498 139.14,37.0191 139.14,40.0652 Z M111.839,40.0652 C111.839,43.1113 109.37,45.5806 106.324,45.5806 C103.277,45.5806 100.808,43.1113 100.808,40.0652 C100.808,37.0191 103.277,34.5498 106.324,34.5498 C109.37,34.5498 111.839,37.0191 111.839,40.0652 Z M84.2619,40.0652 C84.2619,43.1113 81.7925,45.5806 78.7464,45.5806 C75.7003,45.5806 73.231,43.1113 73.231,40.0652 C73.231,37.0191 75.7003,34.5498 78.7464,34.5498 C81.7925,34.5498 84.2619,37.0191 84.2619,40.0652 Z M56.9604,40.0652 C56.9604,43.1113 54.4911,45.5806 51.445,45.5806 C48.3989,45.5806 45.9296,43.1113 45.9296,40.0652 C45.9296,37.0191 48.3989,34.5498 51.445,34.5498 C54.4911,34.5498 56.9604,37.0191 56.9604,40.0652 Z M29.3833,40.0652 C29.3833,43.1113 26.9139,45.5806 23.8678,45.5806 C20.8218,45.5806 18.3524,43.1113 18.3524,40.0652 C18.3524,37.0191 20.8218,34.5498 23.8678,34.5498 C26.9139,34.5498 29.3833,37.0191 29.3833,40.0652 Z M2.35753,40.0652 C2.35753,43.1113 -0.111811,45.5806 -3.1579,45.5806 C-6.20399,45.5806 -8.67333,43.1113 -8.67333,40.0652 C-8.67333,37.0191 -6.20399,34.5498 -3.1579,34.5498 C-0.111811,34.5498 2.35753,37.0191 2.35753,40.0652 Z M-25.2196,40.0652 C-25.2196,43.1113 -27.689,45.5806 -30.735,45.5806 C-33.7811,45.5806 -36.2505,43.1113 -36.2505,40.0652 C-36.2505,37.0191 -33.7811,34.5498 -30.735,34.5498 C-27.689,34.5498 -25.2196,37.0191 -25.2196,40.0652 Z M-52.5211,40.0652 C-52.5211,43.1113 -54.9904,45.5806 -58.0365,45.5806 C-61.0826,45.5806 -63.5519,43.1113 -63.5519,40.0652 C-63.5519,37.0191 -61.0826,34.5498 -58.0365,34.5498 C-54.9904,34.5498 -52.5211,37.0191 -52.5211,40.0652 Z M-79.5465,40.0652 C-79.5465,43.1113 -82.0158,45.5806 -85.0619,45.5806 C-88.108,45.5806 -90.5773,43.1113 -90.5773,40.0652 C-90.5773,37.0191 -88.108,34.5498 -85.0619,34.5498 C-82.0158,34.5498 -79.5465,37.0191 -79.5465,40.0652 Z M-107.124,40.0652 C-107.124,43.1113 -109.593,45.5806 -112.639,45.5806 C-115.685,45.5806 -118.154,43.1113 -118.154,40.0652 C-118.154,37.0191 -115.685,34.5498 -112.639,34.5498 C-109.593,34.5498 -107.124,37.0191 -107.124,40.0652 Z M122.87,12.7637 C122.87,15.8098 120.401,18.2792 117.354,18.2792 C114.308,18.2792 111.839,15.8098 111.839,12.7637 C111.839,9.71766 114.308,7.24832 117.354,7.24832 C120.401,7.24832 122.87,9.71766 122.87,12.7637 Z M95.2927,12.7637 C95.2927,15.8098 92.8234,18.2792 89.7773,18.2792 C86.7312,18.2792 84.2619,15.8098 84.2619,12.7637 C84.2619,9.71766 86.7312,7.24832 89.7773,7.24832 C92.8234,7.24832 95.2927,9.71766 95.2927,12.7637 Z M67.7156,12.7637 C67.7156,15.8098 65.2462,18.2792 62.2001,18.2792 C59.154,18.2792 56.6847,15.8098 56.6847,12.7637 C56.6847,9.71766 59.154,7.24832 62.2001,7.24832 C65.2462,7.24832 67.7156,9.71766 67.7156,12.7637 Z M40.4141,12.7637 C40.4141,15.8098 37.9448,18.2792 34.8987,18.2792 C31.8526,18.2792 29.3833,15.8098 29.3833,12.7637 C29.3833,9.71766 31.8526,7.24832 34.8987,7.24832 C37.9448,7.24832 40.4141,9.71766 40.4141,12.7637 Z M13.3884,12.7637 C13.3884,15.8098 10.919,18.2792 7.87296,18.2792 C4.82687,18.2792 2.35753,15.8098 2.35753,12.7637 C2.35753,9.71766 4.82687,7.24832 7.87296,7.24832 C10.919,7.24832 13.3884,9.71766 13.3884,12.7637 Z M-14.1888,12.7637 C-14.1888,15.8098 -16.6581,18.2792 -19.7042,18.2792 C-22.7503,18.2792 -25.2196,15.8098 -25.2196,12.7637 C-25.2196,9.71766 -22.7503,7.24832 -19.7042,7.24832 C-16.6581,7.24832 -14.1888,9.71766 -14.1888,12.7637 Z M-41.7659,12.7637 C-41.7659,15.8098 -44.2352,18.2792 -47.2813,18.2792 C-50.3274,18.2792 -52.7968,15.8098 -52.7968,12.7637 C-52.7968,9.71766 -50.3274,7.24832 -47.2813,7.24832 C-44.2352,7.24832 -41.7659,9.71766 -41.7659,12.7637 Z M-69.0673,12.7637 C-69.0673,15.8098 -71.5367,18.2792 -74.5828,18.2792 C-77.6289,18.2792 -80.0982,15.8098 -80.0982,12.7637 C-80.0982,9.71766 -77.6289,7.24832 -74.5828,7.24832 C-71.5367,7.24832 -69.0673,9.71766 -69.0673,12.7637 Z M-96.0927,12.7637 C-96.0927,15.8098 -98.5621,18.2792 -101.608,18.2792 C-104.654,18.2792 -107.124,15.8098 -107.124,12.7637 C-107.124,9.71766 -104.654,7.24832 -101.608,7.24832 C-98.5621,7.24832 -96.0927,9.71766 -96.0927,12.7637 Z M-123.67,12.7637 C-123.67,15.8098 -126.139,18.2792 -129.185,18.2792 C-132.231,18.2792 -134.701,15.8098 -134.701,12.7637 C-134.701,9.71766 -132.231,7.24832 -129.185,7.24832 C-126.139,7.24832 -123.67,9.71766 -123.67,12.7637 Z M139.14,-14.8134 C139.14,-11.7673 136.671,-9.29797 133.625,-9.29797 C130.579,-9.29797 128.109,-11.7673 128.109,-14.8134 C128.109,-17.8595 130.579,-20.3288 133.625,-20.3288 C136.671,-20.3288 139.14,-17.8595 139.14,-14.8134 Z M111.839,-14.8134 C111.839,-11.7673 109.37,-9.29797 106.324,-9.29797 C103.277,-9.29797 100.808,-11.7673 100.808,-14.8134 C100.808,-17.8595 103.277,-20.3288 106.324,-20.3288 C109.37,-20.3288 111.839,-17.8595 111.839,-14.8134 Z M84.2619,-14.8134 C84.2619,-11.7673 81.7925,-9.29797 78.7464,-9.29797 C75.7003,-9.29797 73.231,-11.7673 73.231,-14.8134 C73.231,-17.8595 75.7003,-20.3288 78.7464,-20.3288 C81.7925,-20.3288 84.2619,-17.8595 84.2619,-14.8134 Z M56.9604,-14.8134 C56.9604,-11.7673 54.4911,-9.29797 51.445,-9.29797 C48.3989,-9.29797 45.9296,-11.7673 45.9296,-14.8134 C45.9296,-17.8595 48.3989,-20.3288 51.445,-20.3288 C54.4911,-20.3288 56.9604,-17.8595 56.9604,-14.8134 Z M29.3833,-14.8134 C29.3833,-11.7673 26.9139,-9.29797 23.8678,-9.29797 C20.8218,-9.29797 18.3524,-11.7673 18.3524,-14.8134 C18.3524,-17.8595 20.8218,-20.3288 23.8678,-20.3288 C26.9139,-20.3288 29.3833,-17.8595 29.3833,-14.8134 Z M2.35753,-14.8134 C2.35753,-11.7673 -0.111811,-9.29797 -3.1579,-9.29797 C-6.20399,-9.29797 -8.67333,-11.7673 -8.67333,-14.8134 C-8.67333,-17.8595 -6.20399,-20.3288 -3.1579,-20.3288 C-0.111811,-20.3288 2.35753,-17.8595 2.35753,-14.8134 Z M-25.2196,-14.8134 C-25.2196,-11.7673 -27.689,-9.29797 -30.735,-9.29797 C-33.7811,-9.29797 -36.2505,-11.7673 -36.2505,-14.8134 C-36.2505,-17.8595 -33.7811,-20.3288 -30.735,-20.3288 C-27.689,-20.3288 -25.2196,-17.8595 -25.2196,-14.8134 Z M-52.5211,-14.8134 C-52.5211,-11.7673 -54.9904,-9.29797 -58.0365,-9.29797 C-61.0826,-9.29797 -63.5519,-11.7673 -63.5519,-14.8134 C-63.5519,-17.8595 -61.0826,-20.3288 -58.0365,-20.3288 C-54.9904,-20.3288 -52.5211,-17.8595 -52.5211,-14.8134 Z M-79.5465,-14.8134 C-79.5465,-11.7673 -82.0158,-9.29797 -85.0619,-9.29797 C-88.108,-9.29797 -90.5773,-11.7673 -90.5773,-14.8134 C-90.5773,-17.8595 -88.108,-20.3288 -85.0619,-20.3288 C-82.0158,-20.3288 -79.5465,-17.8595 -79.5465,-14.8134 Z M-107.124,-14.8134 C-107.124,-11.7673 -109.593,-9.29797 -112.639,-9.29797 C-115.685,-9.29797 -118.154,-11.7673 -118.154,-14.8134 C-118.154,-17.8595 -115.685,-20.3288 -112.639,-20.3288 C-109.593,-20.3288 -107.124,-17.8595 -107.124,-14.8134 Z M122.87,-42.3905 C122.87,-39.3445 120.401,-36.8751 117.354,-36.8751 C114.308,-36.8751 111.839,-39.3445 111.839,-42.3905 C111.839,-45.4366 114.308,-47.906 117.354,-47.906 C120.401,-47.906 122.87,-45.4366 122.87,-42.3905 Z M95.2927,-42.3905 C95.2927,-39.3445 92.8234,-36.8751 89.7773,-36.8751 C86.7312,-36.8751 84.2619,-39.3445 84.2619,-42.3905 C84.2619,-45.4366 86.7312,-47.906 89.7773,-47.906 C92.8234,-47.906 95.2927,-45.4366 95.2927,-42.3905 Z M67.7156,-42.3905 C67.7156,-39.3445 65.2462,-36.8751 62.2001,-36.8751 C59.154,-36.8751 56.6847,-39.3445 56.6847,-42.3905 C56.6847,-45.4366 59.154,-47.906 62.2001,-47.906 C65.2462,-47.906 67.7156,-45.4366 67.7156,-42.3905 Z M40.4141,-42.3905 C40.4141,-39.3445 37.9448,-36.8751 34.8987,-36.8751 C31.8526,-36.8751 29.3833,-39.3445 29.3833,-42.3905 C29.3833,-45.4366 31.8526,-47.906 34.8987,-47.906 C37.9448,-47.906 40.4141,-45.4366 40.4141,-42.3905 Z M13.3884,-42.3905 C13.3884,-39.3445 10.919,-36.8751 7.87296,-36.8751 C4.82687,-36.8751 2.35753,-39.3445 2.35753,-42.3905 C2.35753,-45.4366 4.82687,-47.906 7.87296,-47.906 C10.919,-47.906 13.3884,-45.4366 13.3884,-42.3905 Z M-14.1888,-42.3905 C-14.1888,-39.3445 -16.6581,-36.8751 -19.7042,-36.8751 C-22.7503,-36.8751 -25.2196,-39.3445 -25.2196,-42.3905 C-25.2196,-45.4366 -22.7503,-47.906 -19.7042,-47.906 C-16.6581,-47.906 -14.1888,-45.4366 -14.1888,-42.3905 Z M-41.7659,-42.3905 C-41.7659,-39.3445 -44.2352,-36.8751 -47.2813,-36.8751 C-50.3274,-36.8751 -52.7968,-39.3445 -52.7968,-42.3905 C-52.7968,-45.4366 -50.3274,-47.906 -47.2813,-47.906 C-44.2352,-47.906 -41.7659,-45.4366 -41.7659,-42.3905 Z M-69.0673,-42.3905 C-69.0673,-39.3445 -71.5367,-36.8751 -74.5828,-36.8751 C-77.6289,-36.8751 -80.0982,-39.3445 -80.0982,-42.3905 C-80.0982,-45.4366 -77.6289,-47.906 -74.5828,-47.906 C-71.5367,-47.906 -69.0673,-45.4366 -69.0673,-42.3905 Z M-96.0927,-42.3905 C-96.0927,-39.3445 -98.5621,-36.8751 -101.608,-36.8751 C-104.654,-36.8751 -107.124,-39.3445 -107.124,-42.3905 C-107.124,-45.4366 -104.654,-47.906 -101.608,-47.906 C-98.5621,-47.906 -96.0927,-45.4366 -96.0927,-42.3905 Z M-123.67,-42.3905 C-123.67,-39.3445 -126.139,-36.8751 -129.185,-36.8751 C-132.231,-36.8751 -134.701,-39.3445 -134.701,-42.3905 C-134.701,-45.4366 -132.231,-47.906 -129.185,-47.906 C-126.139,-47.906 -123.67,-45.4366 -123.67,-42.3905 Z M139.14,-69.692 C139.14,-66.6459 136.671,-64.1766 133.625,-64.1766 C130.579,-64.1766 128.109,-66.6459 128.109,-69.692 C128.109,-72.7381 130.579,-75.2074 133.625,-75.2074 C136.671,-75.2074 139.14,-72.7381 139.14,-69.692 Z M111.839,-69.692 C111.839,-66.6459 109.37,-64.1766 106.324,-64.1766 C103.277,-64.1766 100.808,-66.6459 100.808,-69.692 C100.808,-72.7381 103.277,-75.2074 106.324,-75.2074 C109.37,-75.2074 111.839,-72.7381 111.839,-69.692 Z M84.2619,-69.692 C84.2619,-66.6459 81.7925,-64.1766 78.7464,-64.1766 C75.7003,-64.1766 73.231,-66.6459 73.231,-69.692 C73.231,-72.7381 75.7003,-75.2074 78.7464,-75.2074 C81.7925,-75.2074 84.2619,-72.7381 84.2619,-69.692 Z M56.9604,-69.692 C56.9604,-66.6459 54.4911,-64.1766 51.445,-64.1766 C48.3989,-64.1766 45.9296,-66.6459 45.9296,-69.692 C45.9296,-72.7381 48.3989,-75.2074 51.445,-75.2074 C54.4911,-75.2074 56.9604,-72.7381 56.9604,-69.692 Z M29.3833,-69.692 C29.3833,-66.6459 26.9139,-64.1766 23.8678,-64.1766 C20.8218,-64.1766 18.3524,-66.6459 18.3524,-69.692 C18.3524,-72.7381 20.8218,-75.2074 23.8678,-75.2074 C26.9139,-75.2074 29.3833,-72.7381 29.3833,-69.692 Z M2.35753,-69.692 C2.35753,-66.6459 -0.111811,-64.1766 -3.1579,-64.1766 C-6.20399,-64.1766 -8.67333,-66.6459 -8.67333,-69.692 C-8.67333,-72.7381 -6.20399,-75.2074 -3.1579,-75.2074 C-0.111811,-75.2074 2.35753,-72.7381 2.35753,-69.692 Z M-25.2196,-69.692 C-25.2196,-66.6459 -27.689,-64.1766 -30.735,-64.1766 C-33.7811,-64.1766 -36.2505,-66.6459 -36.2505,-69.692 C-36.2505,-72.7381 -33.7811,-75.2074 -30.735,-75.2074 C-27.689,-75.2074 -25.2196,-72.7381 -25.2196,-69.692 Z M-52.5211,-69.692 C-52.5211,-66.6459 -54.9904,-64.1766 -58.0365,-64.1766 C-61.0826,-64.1766 -63.5519,-66.6459 -63.5519,-69.692 C-63.5519,-72.7381 -61.0826,-75.2074 -58.0365,-75.2074 C-54.9904,-75.2074 -52.5211,-72.7381 -52.5211,-69.692 Z M-79.5465,-69.692 C-79.5465,-66.6459 -82.0158,-64.1766 -85.0619,-64.1766 C-88.108,-64.1766 -90.5773,-66.6459 -90.5773,-69.692 C-90.5773,-72.7381 -88.108,-75.2074 -85.0619,-75.2074 C-82.0158,-75.2074 -79.5465,-72.7381 -79.5465,-69.692 Z M-107.124,-69.692 C-107.124,-66.6459 -109.593,-64.1766 -112.639,-64.1766 C-115.685,-64.1766 -118.154,-66.6459 -118.154,-69.692 C-118.154,-72.7381 -115.685,-75.2074 -112.639,-75.2074 C-109.593,-75.2074 -107.124,-72.7381 -107.124,-69.692 Z M122.87,-96.7174 C122.87,-93.6713 120.401,-91.202 117.354,-91.202 C114.308,-91.202 111.839,-93.6713 111.839,-96.7174 C111.839,-99.7635 114.308,-102.233 117.354,-102.233 C120.401,-102.233 122.87,-99.7635 122.87,-96.7174 Z M95.2927,-96.7174 C95.2927,-93.6713 92.8234,-91.202 89.7773,-91.202 C86.7312,-91.202 84.2619,-93.6713 84.2619,-96.7174 C84.2619,-99.7635 86.7312,-102.233 89.7773,-102.233 C92.8234,-102.233 95.2927,-99.7635 95.2927,-96.7174 Z M67.7156,-96.7174 C67.7156,-93.6713 65.2462,-91.202 62.2001,-91.202 C59.154,-91.202 56.6847,-93.6713 56.6847,-96.7174 C56.6847,-99.7635 59.154,-102.233 62.2001,-102.233 C65.2462,-102.233 67.7156,-99.7635 67.7156,-96.7174 Z M40.4141,-96.7174 C40.4141,-93.6713 37.9448,-91.202 34.8987,-91.202 C31.8526,-91.202 29.3833,-93.6713 29.3833,-96.7174 C29.3833,-99.7635 31.8526,-102.233 34.8987,-102.233 C37.9448,-102.233 40.4141,-99.7635 40.4141,-96.7174 Z M13.3884,-96.7174 C13.3884,-93.6713 10.919,-91.202 7.87296,-91.202 C4.82687,-91.202 2.35753,-93.6713 2.35753,-96.7174 C2.35753,-99.7635 4.82687,-102.233 7.87296,-102.233 C10.919,-102.233 13.3884,-99.7635 13.3884,-96.7174 Z M-14.1888,-96.7174 C-14.1888,-93.6713 -16.6581,-91.202 -19.7042,-91.202 C-22.7503,-91.202 -25.2196,-93.6713 -25.2196,-96.7174 C-25.2196,-99.7635 -22.7503,-102.233 -19.7042,-102.233 C-16.6581,-102.233 -14.1888,-99.7635 -14.1888,-96.7174 Z M-41.7659,-96.7174 C-41.7659,-93.6713 -44.2352,-91.202 -47.2813,-91.202 C-50.3274,-91.202 -52.7968,-93.6713 -52.7968,-96.7174 C-52.7968,-99.7635 -50.3274,-102.233 -47.2813,-102.233 C-44.2352,-102.233 -41.7659,-99.7635 -41.7659,-96.7174 Z M-69.0673,-96.7174 C-69.0673,-93.6713 -71.5367,-91.202 -74.5828,-91.202 C-77.6289,-91.202 -80.0982,-93.6713 -80.0982,-96.7174 C-80.0982,-99.7635 -77.6289,-102.233 -74.5828,-102.233 C-71.5367,-102.233 -69.0673,-99.7635 -69.0673,-96.7174 Z M-96.0927,-96.7174 C-96.0927,-93.6713 -98.5621,-91.202 -101.608,-91.202 C-104.654,-91.202 -107.124,-93.6713 -107.124,-96.7174 C-107.124,-99.7635 -104.654,-102.233 -101.608,-102.233 C-98.5621,-102.233 -96.0927,-99.7635 -96.0927,-96.7174 Z M-123.67,-96.7174 C-123.67,-93.6713 -126.139,-91.202 -129.185,-91.202 C-132.231,-91.202 -134.701,-93.6713 -134.701,-96.7174 C-134.701,-99.7635 -132.231,-102.233 -129.185,-102.233 C-126.139,-102.233 -123.67,-99.7635 -123.67,-96.7174 Z M139.14,-124.295 C139.14,-121.248 136.671,-118.779 133.625,-118.779 C130.579,-118.779 128.109,-121.248 128.109,-124.295 C128.109,-127.341 130.579,-129.81 133.625,-129.81 C136.671,-129.81 139.14,-127.341 139.14,-124.295 Z M111.839,-124.295 C111.839,-121.248 109.37,-118.779 106.324,-118.779 C103.277,-118.779 100.808,-121.248 100.808,-124.295 C100.808,-127.341 103.277,-129.81 106.324,-129.81 C109.37,-129.81 111.839,-127.341 111.839,-124.295 Z M84.2619,-124.295 C84.2619,-121.248 81.7925,-118.779 78.7464,-118.779 C75.7003,-118.779 73.231,-121.248 73.231,-124.295 C73.231,-127.341 75.7003,-129.81 78.7464,-129.81 C81.7925,-129.81 84.2619,-127.341 84.2619,-124.295 Z M56.9604,-124.295 C56.9604,-121.248 54.4911,-118.779 51.445,-118.779 C48.3989,-118.779 45.9296,-121.248 45.9296,-124.295 C45.9296,-127.341 48.3989,-129.81 51.445,-129.81 C54.4911,-129.81 56.9604,-127.341 56.9604,-124.295 Z M29.3833,-124.295 C29.3833,-121.248 26.9139,-118.779 23.8678,-118.779 C20.8218,-118.779 18.3524,-121.248 18.3524,-124.295 C18.3524,-127.341 20.8218,-129.81 23.8678,-129.81 C26.9139,-129.81 29.3833,-127.341 29.3833,-124.295 Z M2.35753,-124.295 C2.35753,-121.248 -0.111811,-118.779 -3.1579,-118.779 C-6.20399,-118.779 -8.67333,-121.248 -8.67333,-124.295 C-8.67333,-127.341 -6.20399,-129.81 -3.1579,-129.81 C-0.111811,-129.81 2.35753,-127.341 2.35753,-124.295 Z M-25.2196,-124.295 C-25.2196,-121.248 -27.689,-118.779 -30.735,-118.779 C-33.7811,-118.779 -36.2505,-121.248 -36.2505,-124.295 C-36.2505,-127.341 -33.7811,-129.81 -30.735,-129.81 C-27.689,-129.81 -25.2196,-127.341 -25.2196,-124.295 Z M-52.5211,-124.295 C-52.5211,-121.248 -54.9904,-118.779 -58.0365,-118.779 C-61.0826,-118.779 -63.5519,-121.248 -63.5519,-124.295 C-63.5519,-127.341 -61.0826,-129.81 -58.0365,-129.81 C-54.9904,-129.81 -52.5211,-127.341 -52.5211,-124.295 Z M-79.5465,-124.295 C-79.5465,-121.248 -82.0158,-118.779 -85.0619,-118.779 C-88.108,-118.779 -90.5773,-121.248 -90.5773,-124.295 C-90.5773,-127.341 -88.108,-129.81 -85.0619,-129.81 C-82.0158,-129.81 -79.5465,-127.341 -79.5465,-124.295 Z M-107.124,-124.295 C-107.124,-121.248 -109.593,-118.779 -112.639,-118.779 C-115.685,-118.779 -118.154,-121.248 -118.154,-124.295 C-118.154,-127.341 -115.685,-129.81 -112.639,-129.81 C-109.593,-129.81 -107.124,-127.341 -107.124,-124.295 Z" fill="#fdf4af" fill-opacity="1" />
		<path d="M-76.3798,-34.0067 Q-68.0405,-26.0466 -67.12,-15.9203L-77.6252,-15.9203 Q-79.4122,-23.6098 -84.7461,-28.1043Q-90.0799,-32.5988 -99.7188,-32.5988Q-111.47,-32.5988 -118.699,-24.3408Q-125.928,-16.0828 -125.928,0.974715Q-125.928,14.9456 -119.403,23.6368Q-112.877,32.3281 -99.9354,32.3281Q-88.0222,32.3281 -81.7949,23.1766Q-78.4917,18.3571 -76.8671,10.5053L-66.3619,10.5053 Q-67.7698,23.0683 -75.6758,31.5699Q-85.1522,41.8045 -101.235,41.8045Q-115.098,41.8045 -124.52,33.4111Q-136.92,22.3101 -136.92,-0.866414Q-136.92,-18.4654 -127.606,-29.7288Q-117.534,-41.9669 -99.8271,-41.9669Q-84.719,-41.9669 -76.3798,-34.0067Z M-101.993,-41.9669" fill="#2d97b7" fill-opacity="1" />
		<path d="M-54.2862,-39.8009 L-44.5391,-39.8009 L-44.5391,39.7467 L-54.2862,39.7467 Z" fill="#2d97b7" fill-opacity="1" />
		<path d="M6.3898,26.1278 Q9.99083,18.7903 9.99083,9.8013Q9.99083,1.67868 7.39159,-3.4115Q3.27613,-11.4258 -6.79593,-11.4258Q-15.7308,-11.4258 -19.7921,-4.60282Q-23.8534,2.22018 -23.8534,11.859Q-23.8534,21.1188 -19.7921,27.292Q-15.7308,33.4652 -6.90423,33.4652Q2.78877,33.4652 6.3898,26.1278Z M12.4276,-12.4547 Q20.1712,-4.98188 20.1712,9.53055Q20.1712,23.5556 13.3482,32.7071Q6.52518,41.8586 -7.8248,41.8586Q-19.7921,41.8586 -26.8317,33.7631Q-33.8714,25.6675 -33.8714,12.0215Q-33.8714,-2.59924 -26.4527,-11.2634Q-19.034,-19.9275 -6.52518,-19.9275Q4.68405,-19.9275 12.4276,-12.4547Z M-6.85008,-19.6568" fill="#2d97b7" fill-opacity="1" />
		<path d="M37.5536,21.552 Q37.9868,26.4256 39.9904,29.0249Q43.6727,33.736 52.77,33.736Q58.1851,33.736 62.3006,31.3804Q66.416,29.0249 66.416,24.0971Q66.416,20.3607 63.1128,18.4113Q61.0009,17.22 54.7736,15.6496L47.03,13.7002 Q39.6113,11.859 36.0915,9.5847Q29.81,5.63169 29.81,-1.35377Q29.81,-9.5847 35.7396,-14.6749Q41.6691,-19.7651 51.687,-19.7651Q64.7915,-19.7651 70.5856,-12.0756Q74.2137,-7.20206 74.1054,-1.57037L64.8998,-1.57037 Q64.629,-4.87358 62.5713,-7.58112Q59.214,-11.4258 50.9289,-11.4258Q45.4055,-11.4258 42.5626,-9.31395Q39.7196,-7.20206 39.7196,-3.73641Q39.7196,0.0541508 43.4561,2.32849Q45.6221,3.68226 49.8459,4.71112L56.2898,6.2815 Q66.7951,8.82659 70.369,11.2092Q76.0549,14.9456 76.0549,22.96Q76.0549,30.7035 70.1795,36.3352Q64.3041,41.9669 52.2826,41.9669Q39.3406,41.9669 33.9526,36.0915Q28.5646,30.2162 28.1855,21.552Z M51.9577,-19.6568" fill="#2d97b7" fill-opacity="1" />
		<path d="M123.329,-16.6514 Q129.123,-13.7543 132.155,-9.15149Q135.079,-4.76527 136.054,1.08302Q136.92,5.09018 136.92,13.8626L94.412,13.8626 Q94.6828,22.6892 98.5816,28.0231Q102.48,33.3569 110.657,33.3569Q118.293,33.3569 122.841,28.3209Q125.44,25.3967 126.523,21.552L136.108,21.552 Q135.729,24.7469 133.59,28.6729Q131.451,32.5988 128.798,35.0898Q124.357,39.4218 117.805,40.938Q114.285,41.8045 109.845,41.8045Q99.0148,41.8045 91.4879,33.9255Q83.9609,26.0466 83.9609,11.859Q83.9609,-2.11188 91.542,-10.8302Q99.1231,-19.5485 111.361,-19.5485Q117.534,-19.5485 123.329,-16.6514Z M126.903,6.11905 Q126.307,-0.216603 124.141,-4.00716Q120.134,-11.0468 110.766,-11.0468Q104.051,-11.0468 99.5022,-6.20027Q94.9535,-1.35377 94.6828,6.11905Z M110.441,-19.6568" fill="#2d97b7" fill-opacity="1" />
	</g>
</svg>