<?xml version="1.0" encoding="utf-8" ?>
<!-- Generator: Assembly 1.0 - http://assemblyapp.co -->
<svg version="1.1" xmlns="http://www.w3.org/2000/svg" xmlns:xlink="http://www.w3.org/1999/xlink" width="300" height="300" viewBox="0 0 300 300">
	<g id="widget" transform="matrix(1,0,0,1,150,150)">
		<path d="M7.36902,-138.832 C7.36902,-134.762 4.0698,-131.463 0,-131.463 C-4.0698,-131.463 -7.36902,-134.762 -7.36902,-138.832 C-7.36902,-142.902 -4.0698,-146.201 0,-146.201 C4.0698,-146.201 7.36902,-142.902 7.36902,-138.832 Z" fill="none" stroke-width="2" stroke="#00dffe" stroke-linecap="square" stroke-linejoin="miter" />
		<path d="M105.819,-98.4501 C105.819,-94.3803 102.52,-91.0811 98.4501,-91.0811 C94.3803,-91.0811 91.0811,-94.3803 91.0811,-98.4501 C91.0811,-102.52 94.3803,-105.819 98.4501,-105.819 C102.52,-105.819 105.819,-102.52 105.819,-98.4501 Z" fill="none" stroke-width="2" stroke="#00dffe" stroke-linecap="square" stroke-linejoin="miter" />
		<path d="M146.201,0 C146.201,4.0698 142.902,7.36902 138.832,7.36902 C134.762,7.36902 131.463,4.0698 131.463,0 C131.463,-4.0698 134.762,-7.36902 138.832,-7.36902 C142.902,-7.36902 146.201,-4.0698 146.201,0 Z" fill="none" stroke-width="2" stroke="#00dffe" stroke-linecap="square" stroke-linejoin="miter" />
		<path d="M105.819,98.4501 C105.819,102.52 102.52,105.819 98.4501,105.819 C94.3803,105.819 91.0811,102.52 91.0811,98.4501 C91.0811,94.3803 94.3803,91.0811 98.4501,91.0811 C102.52,91.0811 105.819,94.3803 105.819,98.4501 Z" fill="none" stroke-width="2" stroke="#00dffe" stroke-linecap="square" stroke-linejoin="miter" />
		<path d="M7.36902,138.832 C7.36902,142.902 4.0698,146.201 0,146.201 C-4.0698,146.201 -7.36902,142.902 -7.36902,138.832 C-7.36902,134.762 -4.0698,131.463 0,131.463 C4.0698,131.463 7.36902,134.762 7.36902,138.832 Z" fill="none" stroke-width="2" stroke="#00dffe" stroke-linecap="square" stroke-linejoin="miter" />
		<path d="M-91.0811,98.4501 C-91.0811,102.52 -94.3803,105.819 -98.4501,105.819 C-102.52,105.819 -105.819,102.52 -105.819,98.4501 C-105.819,94.3803 -102.52,91.0811 -98.4501,91.0811 C-94.3803,91.0811 -91.0811,94.3803 -91.0811,98.4501 Z" fill="none" stroke-width="2" stroke="#00dffe" stroke-linecap="square" stroke-linejoin="miter" />
		<path d="M-131.463,0 C-131.463,4.0698 -134.762,7.36902 -138.832,7.36902 C-142.902,7.36902 -146.201,4.0698 -146.201,0 C-146.201,-4.0698 -142.902,-7.36902 -138.832,-7.36902 C-134.762,-7.36902 -131.463,-4.0698 -131.463,0 Z" fill="none" stroke-width="2" stroke="#00dffe" stroke-linecap="square" stroke-linejoin="miter" />
		<path d="M-91.0811,-98.4501 C-91.0811,-94.3803 -94.3803,-91.0811 -98.4501,-91.0811 C-102.52,-91.0811 -105.819,-94.3803 -105.819,-98.4501 C-105.819,-102.52 -102.52,-105.819 -98.4501,-105.819 C-94.3803,-105.819 -91.0811,-102.52 -91.0811,-98.4501 Z" fill="none" stroke-width="2" stroke="#00dffe" stroke-linecap="square" stroke-linejoin="miter" />
		<path d="M-45.9826,-129.105 C-45.9826,-125.036 -49.2818,-121.736 -53.3516,-121.736 C-57.4214,-121.736 -60.7206,-125.036 -60.7206,-129.105 C-60.7206,-133.175 -57.4214,-136.474 -53.3516,-136.474 C-49.2818,-136.474 -45.9826,-133.175 -45.9826,-129.105 Z" fill="none" stroke-width="2" stroke="#00dffe" stroke-linecap="square" stroke-linejoin="miter" />
		<path d="M60.7206,-129.105 C60.7206,-125.036 57.4214,-121.736 53.3516,-121.736 C49.2818,-121.736 45.9826,-125.036 45.9826,-129.105 C45.9826,-133.175 49.2818,-136.474 53.3516,-136.474 C57.4214,-136.474 60.7206,-133.175 60.7206,-129.105 Z" fill="none" stroke-width="2" stroke="#00dffe" stroke-linecap="square" stroke-linejoin="miter" />
		<path d="M135.885,-53.6463 C135.885,-49.5765 132.585,-46.2773 128.516,-46.2773 C124.446,-46.2773 121.147,-49.5765 121.147,-53.6463 C121.147,-57.7161 124.446,-61.0153 128.516,-61.0153 C132.585,-61.0153 135.885,-57.7161 135.885,-53.6463 Z" fill="none" stroke-width="2" stroke="#00dffe" stroke-linecap="square" stroke-linejoin="miter" />
		<path d="M135.885,52.7622 C135.885,56.832 132.585,60.1313 128.516,60.1313 C124.446,60.1313 121.147,56.832 121.147,52.7622 C121.147,48.6924 124.446,45.3932 128.516,45.3932 C132.585,45.3932 135.885,48.6924 135.885,52.7622 Z" fill="none" stroke-width="2" stroke="#00dffe" stroke-linecap="square" stroke-linejoin="miter" />
		<path d="M60.7206,127.926 C60.7206,131.996 57.4214,135.295 53.3516,135.295 C49.2818,135.295 45.9826,131.996 45.9826,127.926 C45.9826,123.856 49.2818,120.557 53.3516,120.557 C57.4214,120.557 60.7206,123.856 60.7206,127.926 Z" fill="none" stroke-width="2" stroke="#00dffe" stroke-linecap="square" stroke-linejoin="miter" />
		<path d="M-45.9826,127.926 C-45.9826,131.996 -49.2818,135.295 -53.3516,135.295 C-57.4214,135.295 -60.7206,131.996 -60.7206,127.926 C-60.7206,123.856 -57.4214,120.557 -53.3516,120.557 C-49.2818,120.557 -45.9826,123.856 -45.9826,127.926 Z" fill="none" stroke-width="2" stroke="#00dffe" stroke-linecap="square" stroke-linejoin="miter" />
		<path d="M-121.147,52.7622 C-121.147,56.832 -124.446,60.1313 -128.516,60.1313 C-132.585,60.1313 -135.885,56.832 -135.885,52.7622 C-135.885,48.6924 -132.585,45.3932 -128.516,45.3932 C-124.446,45.3932 -121.147,48.6924 -121.147,52.7622 Z" fill="none" stroke-width="2" stroke="#00dffe" stroke-linecap="square" stroke-linejoin="miter" />
		<path d="M-121.147,-53.6463 C-121.147,-49.5765 -124.446,-46.2773 -128.516,-46.2773 C-132.585,-46.2773 -135.885,-49.5765 -135.885,-53.6463 C-135.885,-57.7161 -132.585,-61.0153 -128.516,-61.0153 C-124.446,-61.0153 -121.147,-57.7161 -121.147,-53.6463 Z" fill="none" stroke-width="2" stroke="#00dffe" stroke-linecap="square" stroke-linejoin="miter" />
		
		
		
		<path d="M-49.5342,-21.3343 Q-44.126,-16.1719 -43.529,-9.60482L-50.3419,-9.60482 Q-51.5008,-14.5916 -54.96,-17.5064Q-58.4191,-20.4212 -64.6701,-20.4212Q-72.2908,-20.4212 -76.9791,-15.0657Q-81.6673,-9.71018 -81.6673,1.35205Q-81.6673,10.4125 -77.4356,16.049Q-73.2039,21.6855 -64.8106,21.6855Q-57.0846,21.6855 -53.046,15.7505Q-50.9038,12.625 -49.8503,7.53285L-43.0373,7.53285 Q-43.9504,15.6803 -49.0777,21.1938Q-55.2233,27.8312 -65.6534,27.8312Q-74.6437,27.8312 -80.7543,22.3878Q-88.7963,15.1886 -88.7963,0.158032Q-88.7963,-11.2554 -82.756,-18.56Q-76.224,-26.4967 -64.7404,-26.4967Q-54.9424,-26.4967 -49.5342,-21.3343Z M-66.1451,-26.4967" fill="#2d97b7" fill-opacity="1" />
		<path d="M-35.206,-25.0919 L-28.8847,-25.0919 L-28.8847,26.4967 L-35.206,26.4967 Z" fill="#2d97b7" fill-opacity="1" />
		<path d="M4.14395,17.6644 Q6.4793,12.9059 6.4793,7.07631Q6.4793,1.80859 4.79363,-1.49252Q2.12465,-6.69001 -4.40733,-6.69001Q-10.2018,-6.69001 -12.8357,-2.26512Q-15.4696,2.15977 -15.4696,8.4108Q-15.4696,14.416 -12.8357,18.4195Q-10.2018,22.423 -4.47757,22.423Q1.80859,22.423 4.14395,17.6644Z M8.05962,-7.35726 Q13.0815,-2.51095 13.0815,6.90072Q13.0815,15.9963 8.65663,21.9313Q4.23174,27.8663 -5.07458,27.8663Q-12.8357,27.8663 -17.4011,22.6161Q-21.9664,17.3659 -21.9664,8.51616Q-21.9664,-0.96575 -17.1552,-6.58466Q-12.344,-12.2036 -4.23174,-12.2036Q3.03772,-12.2036 8.05962,-7.35726Z M-4.44245,-12.028" fill="#2d97b7" fill-opacity="1" />
		<path d="M24.3545,14.697 Q24.6354,17.8576 25.9348,19.5433Q28.3228,22.5986 34.2227,22.5986Q37.7345,22.5986 40.4035,21.0709Q43.0725,19.5433 43.0725,16.3475Q43.0725,13.9244 40.9302,12.6601Q39.5606,11.8875 35.522,10.8691L30.5001,9.60482 Q25.689,8.4108 23.4063,6.93584Q19.3326,4.37221 19.3326,-0.158032Q19.3326,-5.496 23.178,-8.7971Q27.0234,-12.0982 33.5203,-12.0982Q42.0189,-12.0982 45.7766,-7.11143Q48.1295,-3.9508 48.0592,-0.298505L42.0891,-0.298505 Q41.9136,-2.44071 40.5791,-4.19662Q38.4017,-6.69001 33.0287,-6.69001Q29.4466,-6.69001 27.6029,-5.3204Q25.7592,-3.9508 25.7592,-1.70323Q25.7592,0.755041 28.1823,2.23Q29.5871,3.10796 32.3263,3.7752L36.5054,4.79363 Q43.3183,6.44419 45.6361,7.98939Q49.3235,10.4125 49.3235,15.61Q49.3235,20.6319 45.5132,24.2842Q41.7028,27.9365 33.9066,27.9365Q25.5134,27.9365 22.0191,24.1262Q18.5248,20.3159 18.279,14.697Z M33.6959,-12.028" fill="#2d97b7" fill-opacity="1" />
		<path d="M79.9817,-10.0789 Q83.7393,-8.2001 85.7059,-5.21505Q87.6023,-2.37048 88.2344,1.42229Q88.7963,4.02103 88.7963,9.71018L61.2286,9.71018 Q61.4041,15.4344 63.9327,18.8936Q66.4612,22.3527 71.764,22.3527Q76.7157,22.3527 79.6656,19.0867Q81.3513,17.1904 82.0536,14.697L88.2696,14.697 Q88.0237,16.7689 86.6366,19.315Q85.2494,21.8611 83.5286,23.4765Q80.6489,26.286 76.3996,27.2693Q74.1169,27.8312 71.2372,27.8312Q64.2136,27.8312 59.3322,22.7215Q54.4507,17.6118 54.4507,8.4108Q54.4507,-0.649686 59.3673,-6.30371Q64.2838,-11.9577 72.2205,-11.9577Q76.224,-11.9577 79.9817,-10.0789Z M82.2995,4.68828 Q81.9132,0.57945 80.5084,-1.87882Q77.9097,-6.44419 71.8342,-6.44419Q67.4796,-6.44419 64.5297,-3.30111Q61.5797,-0.158032 61.4041,4.68828Z M71.6235,-12.028" fill="#2d97b7" fill-opacity="1" />
	</g>
</svg>