<?xml version="1.0" encoding="utf-8" ?>
<!-- Generator: Assembly 1.0 - http://assemblyapp.co -->
<svg version="1.1" xmlns="http://www.w3.org/2000/svg" xmlns:xlink="http://www.w3.org/1999/xlink" width="300" height="300" viewBox="0 0 300 300">
	<g id="widget" transform="matrix(1,0,0,1,150,150)">
		<path d="M-357.509,0 L-357.509,0 C-357.509,78.8038 -293.164,143.148 -214.361,143.148 L214.361,143.148 C293.164,143.148 357.509,78.8038 357.509,0 L357.509,0 C357.509,-78.8038 293.164,-143.148 214.361,-143.148 L-214.361,-143.148 C-293.164,-143.148 -357.509,-78.8038 -357.509,0 Z" fill="#32b9be" fill-opacity="1" />
		<path d="M-123.609,-42.6415 L-107.69,-42.6415 L-84.119,26.7316 L-60.7154,-42.6415 L-44.964,-42.6415 L-44.964,39.4108 L-55.5208,39.4108 L-55.5208,-9.01622 Q-55.5208,-11.5297 -55.409,-17.3388Q-55.2973,-23.1478 -55.2973,-29.7946L-78.701,39.4108 L-89.7046,39.4108 L-113.276,-29.7946 L-113.276,-27.2811 Q-113.276,-24.2649 -113.136,-18.0928Q-112.996,-11.9207 -112.996,-9.01622L-112.996,39.4108 L-123.609,39.4108 Z" fill="#fdf4af" fill-opacity="1" />
		<path d="M8.07118,25.3631 Q11.7856,17.7946 11.7856,8.52253Q11.7856,0.144145 9.10451,-5.10631Q4.85946,-13.373 -5.52973,-13.373Q-14.746,-13.373 -18.9351,-6.33514Q-23.1243,0.702704 -23.1243,10.6451Q-23.1243,20.1964 -18.9351,26.564Q-14.746,32.9316 -5.64145,32.9316Q4.35676,32.9316 8.07118,25.3631Z M14.2991,-14.4342 Q22.2865,-6.72613 22.2865,8.24325Q22.2865,22.7099 15.2487,32.1496Q8.21082,41.5892 -6.591,41.5892Q-18.9351,41.5892 -26.1964,33.2388Q-33.4577,24.8883 -33.4577,10.8126Q-33.4577,-4.26847 -25.8054,-13.2054Q-18.1532,-22.1424 -5.25045,-22.1424Q6.31172,-22.1424 14.2991,-14.4342Z M-5.58559,-21.8631" fill="#fdf4af" fill-opacity="1" />
		<path d="M34.5189,-20.4108 L44.0703,-20.4108 L44.0703,-10.0775 Q45.2433,-13.0937 49.8235,-17.4225Q54.4036,-21.7514 60.3802,-21.7514Q60.6595,-21.7514 61.3298,-21.6955Q62,-21.6397 63.6199,-21.4721L63.6199,-10.8595 Q62.7262,-11.027 61.9721,-11.0829Q61.2181,-11.1387 60.3244,-11.1387Q52.728,-11.1387 48.6505,-6.25135Q44.573,-1.36396 44.573,5.00361L44.573,39.4108 L34.5189,39.4108 Z" fill="#fdf4af" fill-opacity="1" />
		<path d="M109.589,-18.7631 Q115.566,-15.7748 118.694,-11.027Q121.71,-6.50271 122.715,-0.47027Q123.609,3.66307 123.609,12.7117L79.7622,12.7117 Q80.0415,21.8162 84.0631,27.318Q88.0847,32.8198 96.519,32.8198Q104.395,32.8198 109.087,27.6252Q111.768,24.609 112.885,20.6433L122.771,20.6433 Q122.38,23.9388 120.174,27.9883Q117.968,32.0379 115.231,34.6072Q110.651,39.0757 103.892,40.6397Q100.261,41.5334 95.6812,41.5334Q84.51,41.5334 76.746,33.4063Q68.982,25.2793 68.982,10.6451Q68.982,-3.76577 76.8019,-12.7586Q84.6217,-21.7514 97.2451,-21.7514Q103.613,-21.7514 109.589,-18.7631Z M113.276,4.72433 Q112.661,-1.81081 110.427,-5.72072Q106.294,-12.982 96.6307,-12.982Q89.7046,-12.982 85.0127,-7.98289Q80.3208,-2.98378 80.0415,4.72433Z M96.2956,-21.8631" fill="#fdf4af" fill-opacity="1" />
	</g>
</svg>