<?xml version="1.0" encoding="utf-8" ?>
<!-- Generator: Assembly 1.0 - http://assemblyapp.co -->
<svg version="1.1" xmlns="http://www.w3.org/2000/svg" xmlns:xlink="http://www.w3.org/1999/xlink" width="300" height="300" viewBox="0 0 300 300">
	<g id="widget" transform="matrix(1,0,0,1,150,150)">
		<path d="M-61.4186,-35.5076 C-51.502,-52.4617 -57.5799,-73.8942 -74.534,-83.8108 C-91.4881,-93.7273 -113.241,-87.9693 -123.157,-71.0152 C-133.074,-54.0612 -126.996,-32.3087 -110.042,-22.3922 C-92.7677,-12.7955 -71.0152,-18.5535 -61.4186,-35.5076 Z M-61.4186,35.5076 C-71.3351,18.5535 -93.0875,12.7955 -110.042,22.3922 C-126.996,32.3087 -132.754,54.0612 -123.157,71.0152 C-113.56,87.9693 -91.4881,93.7273 -74.534,83.8108 C-57.26,73.8942 -51.502,52.4617 -61.4186,35.5076 Z M2.47869e-06,71.0152 C-19.5132,71.0152 -35.5076,87.0097 -35.5076,106.523 C-35.5076,126.036 -19.5132,142.03 2.47869e-06,142.03 C19.5132,142.03 35.5076,126.036 35.5076,106.523 C35.5076,87.0097 19.5132,71.0152 2.47869e-06,71.0152 Z M61.4186,35.5076 C51.502,52.4617 57.5799,74.2141 74.534,84.1307 C91.4881,94.0472 113.241,87.9693 123.157,71.0152 C133.074,54.0612 126.996,32.3087 110.042,22.3922 C92.7677,12.7955 71.0152,18.5535 61.4186,35.5076 Z M61.4186,-35.5076 C71.3351,-18.5535 93.0875,-12.7955 110.042,-22.3922 C126.996,-32.3087 132.754,-54.0612 123.157,-71.0152 C113.241,-87.9693 91.4881,-93.7273 74.534,-83.8108 C57.26,-73.8942 51.502,-52.4617 61.4186,-35.5076 Z M2.47869e-06,-71.0152 C19.5132,-71.0152 35.5076,-87.0097 35.5076,-106.523 C35.5076,-126.036 19.5132,-142.03 2.47869e-06,-142.03 C-19.5132,-142.03 -35.5076,-126.036 -35.5076,-106.523 C-35.5076,-87.0097 -19.5132,-71.0152 2.47869e-06,-71.0152 Z" fill="#bed2d9" fill-opacity="1" />
		<path d="M-115.45,-25.6379 L-110.127,-25.6379 L-110.127,8.97395 L-90.2263,8.97395 L-90.2263,13.6548 L-115.45,13.6548 Z" fill="#000000" fill-opacity="1" />
		<path d="M-60.3871,6.92773 Q-58.6084,3.30338 -58.6084,-1.13679Q-58.6084,-5.14899 -59.8923,-7.6633Q-61.9251,-11.622 -66.9003,-11.622Q-71.3137,-11.622 -73.3198,-8.25175Q-75.3259,-4.88151 -75.3259,-0.120366Q-75.3259,4.45354 -73.3198,7.50281Q-71.3137,10.5521 -66.9538,10.5521Q-62.1659,10.5521 -60.3871,6.92773Z M-57.4047,-12.1302 Q-53.5798,-8.43899 -53.5798,-1.27053Q-53.5798,5.6572 -56.95,10.1776Q-60.3203,14.698 -67.4085,14.698Q-73.3198,14.698 -76.797,10.6992Q-80.2743,6.70037 -80.2743,-0.040122Q-80.2743,-7.26208 -76.6098,-11.5418Q-72.9453,-15.8214 -66.7665,-15.8214Q-61.2297,-15.8214 -57.4047,-12.1302Z M-66.927,-15.6877" fill="#000000" fill-opacity="1" />
		<path d="M-35.3359,9.32167 Q-33.8112,10.5253 -31.7249,10.5253Q-29.1838,10.5253 -26.8033,9.34842Q-22.7911,7.39582 -22.7911,2.95565L-22.7911,-0.922805 Q-23.6737,-0.361098 -25.0646,0.013374Q-26.4555,0.387846 -27.7929,0.548334L-30.7085,0.922805 Q-33.3298,1.27053 -34.6404,2.01947Q-36.8605,3.27663 -36.8605,6.03167Q-36.8605,8.11801 -35.3359,9.32167Z M-25.1984,-3.7046 Q-23.54,-3.91858 -22.9783,-5.09549Q-22.6573,-5.73744 -22.6573,-6.9411Q-22.6573,-9.40191 -24.4093,-10.512Q-26.1613,-11.622 -29.4246,-11.622Q-33.196,-11.622 -34.7742,-9.58915Q-35.6568,-8.46574 -35.9243,-6.24565L-40.418,-6.24565 Q-40.2842,-11.5418 -36.9809,-13.6147Q-33.6775,-15.6877 -29.3176,-15.6877Q-24.2622,-15.6877 -21.1059,-13.7618Q-17.9764,-11.836 -17.9764,-7.77029L-17.9764,8.73322 Q-17.9764,9.48216 -17.6688,9.93687Q-17.3612,10.3916 -16.3715,10.3916Q-16.0506,10.3916 -15.6494,10.3515Q-15.2481,10.3113 -14.7934,10.2311L-14.7934,13.7886 Q-15.9168,14.1096 -16.5053,14.1898Q-17.0937,14.27 -18.1102,14.27Q-20.5977,14.27 -21.7211,12.5047Q-22.3096,11.5685 -22.5503,9.85663Q-24.0215,11.7825 -26.7765,13.2001Q-29.5316,14.6178 -32.8483,14.6178Q-36.8338,14.6178 -39.3614,12.1971Q-41.8891,9.77639 -41.8891,6.13866Q-41.8891,2.15321 -39.4016,-0.040122Q-36.914,-2.23346 -32.875,-2.74167Z M-29.1838,-15.6877" fill="#000000" fill-opacity="1" />
		<path d="M2.22008,7.36907 Q4.17268,10.4718 8.47911,10.4718Q11.8226,10.4718 13.9758,7.59643Q16.129,4.72102 16.129,-0.655325Q16.129,-6.08517 13.9089,-8.69309Q11.6889,-11.301 8.42561,-11.301Q4.78789,-11.301 2.52768,-8.51923Q0.26748,-5.73744 0.26748,-0.33435Q0.26748,4.2663 2.22008,7.36907Z M13.0263,-14.1096 Q14.3102,-13.3071 15.9418,-11.301L15.9418,-25.7717 L20.5692,-25.7717 L20.5692,13.6548 L16.236,13.6548 L16.236,9.66939 Q14.5509,12.3174 12.2506,13.4944Q9.95025,14.6713 6.98122,14.6713Q2.19333,14.6713 -1.31065,10.6457Q-4.81464,6.62012 -4.81464,-0.0668699Q-4.81464,-6.3259 -1.61825,-10.9132Q1.57813,-15.5005 7.51618,-15.5005Q10.8062,-15.5005 13.0263,-14.1096Z" fill="#000000" fill-opacity="1" />
		<path d="M34.9881,-14.8585 L39.883,-14.8585 L39.883,13.6548 L34.9881,13.6548 Z M34.9881,-25.6379 L39.883,-25.6379 L39.883,-20.1814 L34.9881,-20.1814 Z" fill="#000000" fill-opacity="1" />
		<path d="M54.4625,-14.9922 L59.0364,-14.9922 L59.0364,-10.9265 Q61.0692,-13.4409 63.3428,-14.5375Q65.6164,-15.6342 68.3981,-15.6342Q74.4967,-15.6342 76.6365,-11.3813Q77.8134,-9.05419 77.8134,-4.72102L77.8134,13.6548 L72.9186,13.6548 L72.9186,-4.40004 Q72.9186,-7.02134 72.1429,-8.62622Q70.859,-11.301 67.4887,-11.301Q65.7768,-11.301 64.6802,-10.9533Q62.7008,-10.3648 61.2029,-8.59948Q59.9993,-7.18183 59.6382,-5.67057Q59.2771,-4.15931 59.2771,-1.35077L59.2771,13.6548 L54.4625,13.6548 Z M65.7768,-15.6877" fill="#000000" fill-opacity="1" />
		<path d="M108.228,-13.8421 Q109.592,-12.9059 111.009,-11.1138L111.009,-14.7248 L115.45,-14.7248 L115.45,11.3278 Q115.45,16.7844 113.845,19.9406Q110.849,25.7717 102.53,25.7717Q97.903,25.7717 94.7467,23.6987Q91.5904,21.6257 91.216,17.2123L96.1108,17.2123 Q96.4586,19.1382 97.5017,20.1814Q99.1334,21.7862 102.637,21.7862Q108.174,21.7862 109.886,17.881Q110.902,15.5807 110.822,9.66939Q109.378,11.8627 107.345,12.9326Q105.312,14.0026 101.969,14.0026Q97.3145,14.0026 93.8239,10.6992Q90.3333,7.39582 90.3333,-0.227358Q90.3333,-7.42256 93.8506,-11.4615Q97.368,-15.5005 102.343,-15.5005Q105.713,-15.5005 108.228,-13.8421Z M108.816,-8.67972 Q106.623,-11.2475 103.226,-11.2475Q98.1437,-11.2475 96.2713,-6.48638Q95.2817,-3.94533 95.2817,0.173862Q95.2817,5.01525 97.2476,7.54293Q99.2136,10.0706 102.53,10.0706Q107.719,10.0706 109.833,5.38972Q111.009,2.74167 111.009,-0.789065Q111.009,-6.11191 108.816,-8.67972Z M102.905,-15.6877" fill="#000000" fill-opacity="1" />
	</g>
</svg>